<svg baseProfile="tiny" xmlns="http://www.w3.org/2000/svg" width="109" height="30" viewBox="0 0 109 30"><path fill="none" d="M0 0h109v30h-109z"/><path fill="#fff" d="M35.6 14.6h-2.6v5.7c0 1 .6 1.3 1.5 1.3h1.1v3.1c-.8 0-1.6.1-2.3.1-3.6 0-4.6-1.1-4.6-4.6v-5.5h-2.2v-2.9h2.2v-4.2h4.3v4.1h2.6v2.9zM57.1 14.6h-2.6v5.7c0 1 .6 1.3 1.5 1.3h1.1v3.1c-.8 0-1.6.1-2.3.1-3.6 0-4.6-1.1-4.6-4.6v-5.5h-2.2v-2.9h2.2v-4.2h4.3v4.1h2.6v2.9zM12.9 19.2c0 3.8-2 5.7-5.9 5.7-4.5 0-5.9-2.6-5.9-6.4v-.7h4.2v1.6c0 1.1.6 1.7 1.7 1.7 1 0 1.6-.6 1.6-2.2v-11.4h4.4v11.7zM17.6 19.1c.1 1.8 1.1 2.9 2.9 2.9 1 0 2-.5 2.4-1.4h4c-.8 3-3.5 4.3-6.4 4.3-4.2 0-7.1-2.5-7.1-6.9 0-4 3.2-6.8 7-6.8 4.6 0 6.9 3.5 6.7 7.9h-9.5zm5.2-2.4c-.1-1.4-1.1-2.6-2.5-2.6-1.5 0-2.5 1.1-2.7 2.6h5.2zM39.8 20.3c0 .6.3 1.1.7 1.4.4.3 1 .4 1.6.4.8 0 2-.3 2-1.4 0-1-1.3-1.2-2.1-1.4-2.7-.7-6-.7-6-4.2 0-3.1 3.4-3.9 5.9-3.9 2.8 0 5.8.8 5.9 4.2h-3.9c0-.5-.2-.9-.5-1.1-.4-.2-.9-.3-1.4-.3-.7 0-1.8.1-1.8 1 0 1.2 2.8 1.4 4.8 1.9 2.6.5 3.3 2.4 3.3 3.5 0 3.4-3.3 4.6-6.2 4.6-3.1 0-6.2-1-6.3-4.6h4zM57.9 15.6c.1-1.7.9-2.8 2-3.4 1.1-.6 2.6-.9 4.1-.9 3 0 6 .7 6 4.3v5.6c0 1.1 0 2.3.5 3.3h-4.2c-.1-.4-.2-.8-.2-1.2-1.1 1.1-2.7 1.6-4.2 1.6-2.4 0-4.4-1.2-4.4-3.9 0-4.2 4.6-3.9 7.5-4.5.7-.1 1.1-.4 1.1-1.2 0-1-1.2-1.3-2-1.3-1.2 0-1.9.5-2.1 1.6h-4.1zm5.4 6.7c2 0 2.7-1.1 2.6-3.8-.6.4-1.7.4-2.6.7-.9.2-1.7.6-1.7 1.6-.1 1.1.8 1.5 1.7 1.5zM76.4 12.1c-.6.4-1.1 1-1.4 1.8v-2.3h-4.1v12.9h4.1v-6.4c0-1.6 1.1-3.1 3.2-3.1.5 0 .9.1 1.4.2l-3.2-3.1z"/><path fill-rule="evenodd" fill="#FE5815" d="M95 .2l.5 8.8h12.2l-11.7 7.8 2.6 12.7-9.9-8.6-13.4 6.9 8-10.9-7.6-7.9h12.3l7-8.8z"/></svg>